<?xml version="1.0" encoding="UTF-8"?>
<!DOCTYPE svg PUBLIC "-//W3C//DTD SVG 1.1//EN" "http://www.w3.org/Graphics/SVG/1.1/DTD/svg11.dtd">
<svg xmlns="http://www.w3.org/2000/svg" version="1.1" width="430px" height="430px" style="shape-rendering:geometricPrecision; text-rendering:geometricPrecision; image-rendering:optimizeQuality; fill-rule:evenodd; clip-rule:evenodd" xmlns:xlink="http://www.w3.org/1999/xlink">
<g><path style="opacity:0.999" fill="#fec000" d="M 368.5,310.5 C 364.63,331.88 352.297,346.046 331.5,353C 292.871,354.152 254.204,354.652 215.5,354.5C 176.139,354.646 136.806,354.146 97.5,353C 76.7031,346.046 64.3698,331.88 60.5,310.5C 60.3333,240.499 60.5,170.499 61,100.5C 66.1667,79.3333 79.3333,66.1667 100.5,61C 176.5,60.3333 252.5,60.3333 328.5,61C 349.667,66.1667 362.833,79.3333 368,100.5C 368.5,170.499 368.667,240.499 368.5,310.5 Z"/></g>
<g><path style="opacity:1" fill="#fffed6" d="M 153.5,123.5 C 182.502,123.333 211.502,123.5 240.5,124C 254.971,137.471 269.138,151.304 283,165.5C 283.667,204.833 283.667,244.167 283,283.5C 281.482,289.357 277.648,292.524 271.5,293C 232.833,293.667 194.167,293.667 155.5,293C 150.306,291.807 147.14,288.64 146,283.5C 145.333,232.833 145.333,182.167 146,131.5C 147.387,127.678 149.887,125.011 153.5,123.5 Z"/></g>
<g><path style="opacity:1" fill="#ffc10b" d="M 168.5,135.5 C 187.833,135.5 207.167,135.5 226.5,135.5C 226.172,146.346 226.506,157.013 227.5,167.5C 228.172,172.339 230.838,175.505 235.5,177C 247.495,177.5 259.495,177.667 271.5,177.5C 271.667,208.502 271.5,239.502 271,270.5C 270.3,274.066 268.467,276.9 265.5,279C 232.252,280.652 198.919,280.986 165.5,280C 161.51,278.01 159.01,274.843 158,270.5C 157.333,228.5 157.333,186.5 158,144.5C 159.853,139.473 163.353,136.473 168.5,135.5 Z"/></g>
<g><path style="opacity:1" fill="#ffe171" d="M 168.5,135.5 C 187.993,134.503 207.66,134.17 227.5,134.5C 227.5,145.5 227.5,156.5 227.5,167.5C 226.506,157.013 226.172,146.346 226.5,135.5C 207.167,135.5 187.833,135.5 168.5,135.5 Z"/></g>
<g><path style="opacity:1" fill="#fffdd4" d="M 174.5,183.5 C 186.505,183.333 198.505,183.5 210.5,184C 215.387,187.225 215.72,190.892 211.5,195C 198.833,195.667 186.167,195.667 173.5,195C 169.344,190.787 169.677,186.954 174.5,183.5 Z"/></g>
<g><path style="opacity:1" fill="#fffcd2" d="M 173.5,208.5 C 200.835,208.333 228.169,208.5 255.5,209C 259.867,213.502 259.201,217.168 253.5,220C 227.5,220.667 201.5,220.667 175.5,220C 169.732,216.997 169.065,213.164 173.5,208.5 Z"/></g>
<g><path style="opacity:1" fill="#fffed8" d="M 174.5,232.5 C 201.169,232.333 227.835,232.5 254.5,233C 259.815,236.617 259.815,240.283 254.5,244C 227.833,244.667 201.167,244.667 174.5,244C 169.266,240.124 169.266,236.291 174.5,232.5 Z"/></g>
<g><path style="opacity:1" fill="#fffed8" d="M 174.5,256.5 C 201.169,256.333 227.835,256.5 254.5,257C 259.815,260.717 259.815,264.383 254.5,268C 227.833,268.667 201.167,268.667 174.5,268C 169.229,264.222 169.229,260.389 174.5,256.5 Z"/></g>
<g><path style="opacity:0.982" fill="#dda600" d="M 60.5,310.5 C 64.3698,331.88 76.7031,346.046 97.5,353C 136.806,354.146 176.139,354.646 215.5,354.5C 254.204,354.652 292.871,354.152 331.5,353C 352.297,346.046 364.63,331.88 368.5,310.5C 370.582,340.531 357.248,359.698 328.5,368C 252.5,368.667 176.5,368.667 100.5,368C 71.7516,359.698 58.4182,340.531 60.5,310.5 Z"/></g>
</svg>
